<?xml version="1.0" standalone="no"?>
<!DOCTYPE svg PUBLIC "-//W3C//DTD SVG 20010904//EN"
 "http://www.w3.org/TR/2001/REC-SVG-20010904/DTD/svg10.dtd">
<svg version="1.0" xmlns="http://www.w3.org/2000/svg"
 width="16.000000pt" height="16.000000pt" viewBox="0 0 16.000000 16.000000"
 preserveAspectRatio="xMidYMid meet">
<metadata>
Created by potrace 1.11, written by Peter Selinger 2001-2013
</metadata>
<g transform="translate(0.000000,16.000000) scale(0.017021,-0.017021)"
fill="#000000" stroke="none">
<path d="M377 900 c-80 -14 -188 -71 -249 -133 -132 -134 -162 -321 -77 -488
85 -170 304 -275 499 -240 73 13 182 62 234 105 l28 24 -173 -5 c-191 -6 -310
5 -427 39 -81 24 -90 33 -16 19 94 -19 120 -22 259 -26 125 -3 218 2 318 19
79 14 91 21 118 72 15 27 30 58 33 70 6 21 5 21 -61 9 -167 -31 -390 -35 -560
-9 -99 14 -207 44 -222 60 -3 4 2 4 13 0 63 -23 226 -39 386 -39 177 0 283 13
404 48 l58 17 -6 57 c-7 68 -16 101 -27 101 -4 0 -20 -5 -34 -10 -109 -41
-449 -55 -610 -25 -11 2 -30 4 -42 4 -13 1 -23 5 -23 9 0 5 24 5 53 1 57 -8
354 -4 402 5 17 4 55 11 85 17 60 12 150 47 150 59 0 10 -58 91 -82 113 -18
18 -24 18 -126 4 -98 -14 -365 -17 -377 -5 -3 3 63 8 147 11 137 6 269 24 285
41 10 10 -118 65 -176 76 -61 11 -114 11 -184 0z m-96 -128 c-7 -2 -18 1 -23
6 -8 8 -4 9 13 5 13 -4 18 -8 10 -11z"/>
</g>
</svg>
